<?xml version="1.0" encoding="UTF-8" standalone="no"?>
<!-- Created with Inkscape (http://www.inkscape.org/) -->

<svg
   xmlns:dc="http://purl.org/dc/elements/1.1/"
   xmlns:cc="http://creativecommons.org/ns#"
   xmlns:rdf="http://www.w3.org/1999/02/22-rdf-syntax-ns#"
   xmlns:svg="http://www.w3.org/2000/svg"
   xmlns="http://www.w3.org/2000/svg"
   xmlns:sodipodi="http://sodipodi.sourceforge.net/DTD/sodipodi-0.dtd"
   xmlns:inkscape="http://www.inkscape.org/namespaces/inkscape"
   width="24"
   height="24"
   viewBox="0 0 6.3499999 6.3500002"
   version="1.1"
   id="svg8"
   inkscape:version="0.92.2 (5c3e80d, 2017-08-06)"
   sodipodi:docname="logo.svg"
   inkscape:export-filename="C:\wamp64\www\sky-notes\logo\logo-large.png"
   inkscape:export-xdpi="256"
   inkscape:export-ydpi="256">
  <defs
     id="defs2" />
  <sodipodi:namedview
     id="base"
     pagecolor="#ffffff"
     bordercolor="#666666"
     borderopacity="1.0"
     inkscape:pageopacity="0.0"
     inkscape:pageshadow="2"
     inkscape:zoom="20.623947"
     inkscape:cx="12.598175"
     inkscape:cy="11.710151"
     inkscape:document-units="px"
     inkscape:current-layer="layer1"
     showgrid="false"
     units="px"
     inkscape:window-width="1920"
     inkscape:window-height="1017"
     inkscape:window-x="-8"
     inkscape:window-y="-8"
     inkscape:window-maximized="1" />
  <metadata
     id="metadata5">
    <rdf:RDF>
      <cc:Work
         rdf:about="">
        <dc:format>image/svg+xml</dc:format>
        <dc:type
           rdf:resource="http://purl.org/dc/dcmitype/StillImage" />
        <dc:title />
      </cc:Work>
    </rdf:RDF>
  </metadata>
  <g
     inkscape:label="Calque 1"
     inkscape:groupmode="layer"
     id="layer1"
     transform="translate(0,-290.64999)">
    <path
       style="fill:#cccccc;stroke:none;stroke-width:0.28254116px;stroke-linecap:butt;stroke-linejoin:miter;stroke-opacity:1"
       d="m 1.9490351,296.44087 2.1732967,-3.56835 -2.2325797,2.18212 z"
       id="path821"
       inkscape:connector-curvature="0" />
    <path
       style="fill:#ffffff;fill-opacity:1;stroke:#808080;stroke-width:0.26458335;stroke-linejoin:round;stroke-miterlimit:4;stroke-dasharray:none;stroke-opacity:1"
       d="m 3.7182921,290.97823 a 0.86528513,0.66650345 0 0 0 -0.8609296,0.59944 0.86528513,0.66650345 0 0 0 -0.1798339,-0.015 0.86528513,0.66650345 0 0 0 -0.8650635,0.66662 0.86528513,0.66650345 0 0 0 0.3389974,0.52762 0.86528513,0.66650345 0 0 0 -0.011886,0.10387 0.86528513,0.66650345 0 0 0 0.8655803,0.66611 0.86528513,0.66650345 0 0 0 0.03669,-10e-4 0.86528513,0.66650345 0 0 0 0.8521443,0.55088 0.86528513,0.66650345 0 0 0 0.8066691,-0.4284 0.86528513,0.66650345 0 0 0 0.5612062,0.15968 0.86528513,0.66650345 0 0 0 0.8650634,-0.66663 0.86528513,0.66650345 0 0 0 -0.5219319,-0.61185 0.86528513,0.66650345 0 0 0 0.2764689,-0.48731 0.86528513,0.66650345 0 0 0 -0.8650634,-0.66662 0.86528513,0.66650345 0 0 0 -0.4604372,0.10283 0.86528513,0.66650345 0 0 0 -0.8376748,-0.50022 z"
       id="path823"
       inkscape:connector-curvature="0" />
    <path
       style="fill:#808080;stroke:none;stroke-width:0.28254116;stroke-linecap:butt;stroke-linejoin:round;stroke-miterlimit:4;stroke-dasharray:none;stroke-opacity:1"
       d="m 1.8897521,295.05464 0.059283,1.38623 0.4326411,-1.12639 1.7406551,-2.44196 z"
       id="path819"
       inkscape:connector-curvature="0"
       sodipodi:nodetypes="ccccc" />
    <path
       style="fill:#f9f9f9;stroke:none;stroke-width:0.28254116;stroke-linecap:butt;stroke-linejoin:round;stroke-miterlimit:4;stroke-dasharray:none;stroke-opacity:1"
       d="m 4.1223316,292.87252 -3.75249946,1.48207 1.51991996,0.70005 z"
       id="path815"
       inkscape:connector-curvature="0"
       sodipodi:nodetypes="cccc" />
    <path
       style="fill:#f9f9f9;stroke:none;stroke-width:0.28254116;stroke-linecap:butt;stroke-linejoin:round;stroke-miterlimit:4;stroke-dasharray:none;stroke-opacity:1"
       d="m 4.1223316,292.87252 -1.7406551,2.44196 1.7658821,1.06458 z"
       id="path817"
       inkscape:connector-curvature="0"
       sodipodi:nodetypes="cccc" />
    <path
       style="fill:none;stroke:#4d4d4d;stroke-width:0.24996844px;stroke-linecap:butt;stroke-linejoin:miter;stroke-opacity:1"
       d="m 0.36983214,294.35459 3.75249966,-1.48207 0.025227,3.50654 -1.5773902,-0.96115 -0.6211334,1.02296 -0.059283,-1.38623 z"
       id="path871"
       inkscape:connector-curvature="0" />
  </g>
</svg>
